<?xml version="1.0" encoding="UTF-8"?>
<!--Generator: Apple Native CoreSVG 175.5-->
<!DOCTYPE svg
PUBLIC "-//W3C//DTD SVG 1.1//EN"
       "http://www.w3.org/Graphics/SVG/1.1/DTD/svg11.dtd">
<svg version="1.1" xmlns="http://www.w3.org/2000/svg" xmlns:xlink="http://www.w3.org/1999/xlink" width="18.4219" height="14.3828">
 <g>
  <rect height="14.3828" opacity="0" width="18.4219" x="0" y="0"/>
  <path d="M2.45312 14.3828L15.9688 14.3828C17.6094 14.3828 18.4219 13.5781 18.4219 11.9688L18.4219 2.42188C18.4219 0.8125 17.6094 0 15.9688 0L2.45312 0C0.820312 0 0 0.8125 0 2.42188L0 11.9688C0 13.5781 0.820312 14.3828 2.45312 14.3828ZM2.46875 13.125C1.6875 13.125 1.25781 12.7109 1.25781 11.8984L1.25781 2.49219C1.25781 1.67969 1.6875 1.25781 2.46875 1.25781L15.9531 1.25781C16.7266 1.25781 17.1641 1.67969 17.1641 2.49219L17.1641 11.8984C17.1641 12.7109 16.7266 13.125 15.9531 13.125ZM1.26562 7.875L3.14062 7.875C3.46094 7.875 3.60938 7.72656 3.71875 7.45312L4.71094 5.05469L6.52344 10.875C6.65625 11.3047 7.35156 11.2969 7.49219 10.8516L8.4375 7.875L10.2812 7.875C10.6016 7.875 10.7422 7.72656 10.8594 7.45312L11.8828 5.05469L13.7031 10.875C13.8359 11.3047 14.5312 11.2969 14.6641 10.8516L15.6172 7.875L17.1719 7.875L17.1719 6.86719L15.3359 6.86719C15.0156 6.86719 14.8516 7.02344 14.7578 7.28906L14.1797 8.92188L12.3594 3.42188C12.2188 3 11.5859 3 11.4062 3.44531L10 6.86719L8.15625 6.86719C7.84375 6.86719 7.67969 7.02344 7.57812 7.28906L7 8.92188L5.17969 3.42188C5.04688 3 4.40625 3 4.22656 3.44531L2.82031 6.86719L1.26562 6.86719Z" fill="#ffffff" fill-opacity="0.85"/>
 </g>
</svg>
