<?xml version="1.0" encoding="UTF-8"?>
<!--Generator: Apple Native CoreSVG 175.5-->
<!DOCTYPE svg
PUBLIC "-//W3C//DTD SVG 1.1//EN"
       "http://www.w3.org/Graphics/SVG/1.1/DTD/svg11.dtd">
<svg version="1.1" xmlns="http://www.w3.org/2000/svg" xmlns:xlink="http://www.w3.org/1999/xlink" width="18.4219" height="14.3984">
 <g>
  <rect height="14.3984" opacity="0" width="18.4219" x="0" y="0"/>
  <path d="M14.7969 11.0469C15.4531 11.0469 15.8828 10.6094 15.8828 9.95312C15.8828 9.3125 15.4531 8.88281 14.7969 8.88281L14.4062 8.88281L14.4062 8.05469L14.7969 8.05469C15.4531 8.05469 15.8828 7.63281 15.8828 6.99219C15.8828 6.33594 15.4531 5.89844 14.7969 5.89844C14.1484 5.89844 13.7266 6.33594 13.7266 6.99219L13.7266 7.38281L12.9219 7.38281L12.9219 6.99219C12.9219 6.33594 12.5 5.89844 11.8516 5.89844C11.1953 5.89844 10.7656 6.33594 10.7656 6.99219C10.7656 7.63281 11.1953 8.05469 11.8516 8.05469L12.2344 8.05469L12.2344 8.88281L11.8516 8.88281C11.1953 8.88281 10.7656 9.3125 10.7656 9.95312C10.7656 10.6094 11.1953 11.0469 11.8516 11.0469C12.5 11.0469 12.9219 10.6094 12.9219 9.95312L12.9219 9.57031L13.7266 9.57031L13.7266 9.95312C13.7266 10.6094 14.1484 11.0469 14.7969 11.0469ZM14.4062 9.55469L14.7969 9.55469C15.0469 9.55469 15.2031 9.71875 15.2031 9.95312C15.2031 10.2031 15.0469 10.3672 14.7969 10.3672C14.5625 10.3672 14.4062 10.2031 14.4062 9.95312ZM12.2344 9.55469L12.2344 9.95312C12.2344 10.1875 12.0703 10.3672 11.8516 10.3672C11.6016 10.3672 11.4453 10.2031 11.4453 9.95312C11.4453 9.71875 11.6016 9.55469 11.8516 9.55469ZM13.7266 8.89844L12.9219 8.89844L12.9219 8.05469L13.7266 8.05469ZM14.4062 7.38281L14.4062 6.99219C14.4062 6.74219 14.5625 6.57812 14.7969 6.57812C15.0469 6.57812 15.2031 6.74219 15.2031 6.99219C15.2031 7.22656 15.0469 7.38281 14.7969 7.38281ZM12.2344 7.38281L11.8516 7.38281C11.6016 7.38281 11.4453 7.22656 11.4453 6.99219C11.4453 6.74219 11.6016 6.57812 11.8516 6.57812C12.0781 6.57812 12.2344 6.74219 12.2344 6.99219ZM3.03906 6.54688C3.03906 6.80469 3.25 7.00781 3.5 7.00781L8.26562 7.00781C8.51562 7.00781 8.71875 6.80469 8.71875 6.54688C8.71875 6.28906 8.51562 6.07812 8.26562 6.07812L3.5 6.07812C3.25 6.07812 3.03906 6.28906 3.03906 6.54688ZM3.03906 8.47656C3.03906 8.73438 3.25 8.94531 3.5 8.94531L8.26562 8.94531C8.51562 8.94531 8.71875 8.73438 8.71875 8.47656C8.71875 8.21875 8.51562 8.01562 8.26562 8.01562L3.5 8.01562C3.25 8.01562 3.03906 8.21875 3.03906 8.47656ZM3.03906 10.4141C3.03906 10.6719 3.25 10.875 3.5 10.875L8.26562 10.875C8.51562 10.875 8.71875 10.6719 8.71875 10.4141C8.71875 10.1484 8.51562 9.94531 8.26562 9.94531L3.5 9.94531C3.25 9.94531 3.03906 10.1484 3.03906 10.4141ZM0 11.9766C0 13.5938 0.820312 14.3984 2.45312 14.3984L15.9688 14.3984C17.6094 14.3984 18.4219 13.5859 18.4219 11.9766L18.4219 2.4375C18.4219 0.828125 17.6094 0.015625 15.9688 0.015625L2.45312 0.015625C0.820312 0.015625 0 0.820312 0 2.4375ZM2.47656 2.67969C2.09375 2.67969 1.78125 2.35156 1.78125 1.98438C1.78125 1.61719 2.09375 1.28906 2.47656 1.28906C2.85938 1.28906 3.17969 1.61719 3.17969 1.98438C3.17969 2.35156 2.85938 2.67969 2.47656 2.67969ZM4.71875 2.67969C4.33594 2.67969 4.02344 2.35156 4.02344 1.98438C4.02344 1.61719 4.33594 1.28906 4.71875 1.28906C5.10156 1.28906 5.42188 1.61719 5.42188 1.98438C5.42188 2.35156 5.10156 2.67969 4.71875 2.67969ZM6.96094 2.67969C6.57812 2.67969 6.26562 2.35156 6.26562 1.98438C6.26562 1.61719 6.57812 1.28906 6.96094 1.28906C7.34375 1.28906 7.65625 1.61719 7.65625 1.98438C7.65625 2.35156 7.34375 2.67969 6.96094 2.67969ZM1.25781 11.9141L1.25781 3.95312L17.1641 3.95312L17.1641 11.9141C17.1641 12.7266 16.7266 13.1406 15.9531 13.1406L2.46875 13.1406C1.6875 13.1406 1.25781 12.7266 1.25781 11.9141Z" fill="#ffffff" fill-opacity="0.85"/>
 </g>
</svg>
