<?xml version="1.0" encoding="UTF-8"?>
<!--Generator: Apple Native CoreSVG 175.5-->
<!DOCTYPE svg
PUBLIC "-//W3C//DTD SVG 1.1//EN"
       "http://www.w3.org/Graphics/SVG/1.1/DTD/svg11.dtd">
<svg version="1.1" xmlns="http://www.w3.org/2000/svg" xmlns:xlink="http://www.w3.org/1999/xlink" width="19.4375" height="15.8359">
 <g>
  <rect height="15.8359" opacity="0" width="19.4375" x="0" y="0"/>
  <path d="M2.45312 12.2109L4.08594 12.2109L4.08594 10.9531L2.46875 10.9531C1.6875 10.9531 1.25781 10.5391 1.25781 9.72656L1.25781 2.49219C1.25781 1.67969 1.6875 1.25781 2.46875 1.25781L13.0156 1.25781C13.7891 1.25781 14.2344 1.67969 14.2344 2.49219L14.2344 4.1875L15.4922 4.1875L15.4922 2.42188C15.4922 0.8125 14.6641 0 13.0391 0L2.45312 0C0.8125 0 0 0.8125 0 2.42188L0 9.78906C0 11.4062 0.8125 12.2109 2.45312 12.2109ZM6.3125 15.8281L16.9844 15.8281C18.6094 15.8281 19.4375 15.0156 19.4375 13.4062L19.4375 6.03906C19.4375 4.42969 18.6094 3.61719 16.9844 3.61719L6.3125 3.61719C4.67188 3.61719 3.85938 4.42969 3.85938 6.03906L3.85938 13.4062C3.85938 15.0234 4.67188 15.8281 6.3125 15.8281ZM5.11719 7.5625L18.1797 7.5625L18.1797 13.3438C18.1797 14.1562 17.7344 14.5703 16.9609 14.5703L6.32812 14.5703C5.54688 14.5703 5.11719 14.1562 5.11719 13.3438ZM6.33594 6.28906C5.95312 6.28906 5.64062 5.95312 5.64062 5.59375C5.64062 5.21875 5.95312 4.89062 6.33594 4.89062C6.71875 4.89062 7.03125 5.21875 7.03125 5.59375C7.03125 5.95312 6.71875 6.28906 6.33594 6.28906ZM8.57812 6.28906C8.19531 6.28906 7.88281 5.96094 7.88281 5.59375C7.88281 5.21875 8.19531 4.89062 8.57812 4.89062C8.96094 4.89062 9.27344 5.21875 9.27344 5.59375C9.27344 5.96094 8.96094 6.28906 8.57812 6.28906ZM10.8203 6.28906C10.4375 6.28906 10.125 5.96094 10.125 5.59375C10.125 5.21875 10.4375 4.89062 10.8203 4.89062C11.2031 4.89062 11.5156 5.21875 11.5156 5.59375C11.5156 5.96094 11.2031 6.28906 10.8203 6.28906Z" fill="#ffffff" fill-opacity="0.85"/>
 </g>
</svg>
