<?xml version="1.0" encoding="UTF-8"?>
<!--Generator: Apple Native CoreSVG 175.5-->
<!DOCTYPE svg
PUBLIC "-//W3C//DTD SVG 1.1//EN"
       "http://www.w3.org/Graphics/SVG/1.1/DTD/svg11.dtd">
<svg version="1.1" xmlns="http://www.w3.org/2000/svg" xmlns:xlink="http://www.w3.org/1999/xlink" width="18.4219" height="14.3828">
 <g>
  <rect height="14.3828" opacity="0" width="18.4219" x="0" y="0"/>
  <path d="M0.671875 5.78125L8.58594 5.78125L8.58594 13.8125L9.84375 13.8125L9.84375 5.78125L17.9062 5.78125L17.9062 4.60156L0.671875 4.60156ZM2.45312 14.3828L15.9688 14.3828C17.6094 14.3828 18.4219 13.5781 18.4219 11.9688L18.4219 2.42188C18.4219 0.8125 17.6094 0 15.9688 0L2.45312 0C0.820312 0 0 0.8125 0 2.42188L0 11.9688C0 13.5781 0.820312 14.3828 2.45312 14.3828ZM2.46875 13.125C1.6875 13.125 1.25781 12.7109 1.25781 11.8984L1.25781 2.49219C1.25781 1.67969 1.6875 1.25781 2.46875 1.25781L15.9531 1.25781C16.7266 1.25781 17.1641 1.67969 17.1641 2.49219L17.1641 11.8984C17.1641 12.7109 16.7266 13.125 15.9531 13.125Z" fill="#ffffff" fill-opacity="0.85"/>
 </g>
</svg>
