<?xml version="1.0" encoding="UTF-8"?>
<!--Generator: Apple Native CoreSVG 175.5-->
<!DOCTYPE svg
PUBLIC "-//W3C//DTD SVG 1.1//EN"
       "http://www.w3.org/Graphics/SVG/1.1/DTD/svg11.dtd">
<svg version="1.1" xmlns="http://www.w3.org/2000/svg" xmlns:xlink="http://www.w3.org/1999/xlink" width="18.4219" height="14.3828">
 <g>
  <rect height="14.3828" opacity="0" width="18.4219" x="0" y="0"/>
  <path d="M2.45312 14.3828L15.9688 14.3828C17.6094 14.3828 18.4219 13.5781 18.4219 11.9688L18.4219 2.42188C18.4219 0.8125 17.6094 0 15.9688 0L2.45312 0C0.820312 0 0 0.8125 0 2.42188L0 11.9688C0 13.5781 0.820312 14.3828 2.45312 14.3828ZM2.46875 13.125C1.6875 13.125 1.25781 12.7109 1.25781 11.8984L1.25781 2.49219C1.25781 1.67969 1.6875 1.25781 2.46875 1.25781L15.9531 1.25781C16.7266 1.25781 17.1641 1.67969 17.1641 2.49219L17.1641 11.8984C17.1641 12.7109 16.7266 13.125 15.9531 13.125ZM4.60156 10.3828C4.94531 10.3828 5.14062 10.1641 5.14062 9.79688L5.14062 4.52344C5.14062 4.14062 4.92969 3.92969 4.57812 3.92969C4.32031 3.92969 4.15625 3.99219 3.86719 4.19531L2.61719 5.03906C2.46875 5.14062 2.41406 5.25 2.41406 5.40625C2.41406 5.61719 2.58594 5.79688 2.78125 5.79688C2.88281 5.79688 2.96094 5.78125 3.125 5.66406L4.01562 5.07812L4.08594 5.07812L4.08594 9.79688C4.08594 10.1562 4.28125 10.3828 4.60156 10.3828ZM6.82812 10.2891L10.3359 10.2891C10.6016 10.2891 10.7891 10.0938 10.7891 9.82812C10.7891 9.5625 10.6016 9.38281 10.3359 9.38281L7.83594 9.38281L7.83594 9.35156L9.45312 7.61719C10.0625 6.96094 10.4922 6.42188 10.4922 5.67188C10.4922 4.61719 9.65625 3.92188 8.39062 3.92188C7.42969 3.92188 6.5625 4.50781 6.34375 5.29688C6.32031 5.40625 6.30469 5.47656 6.30469 5.57031C6.30469 5.83594 6.47656 6.01562 6.75781 6.01562C7 6.01562 7.13281 5.86719 7.25 5.67188C7.41406 5.25 7.78125 4.8125 8.4375 4.8125C9.07812 4.8125 9.50781 5.1875 9.50781 5.75C9.50781 6.23438 9.10156 6.65625 8.70312 7.07812L6.51562 9.42969C6.39844 9.54688 6.33594 9.67188 6.33594 9.83594C6.33594 10.1094 6.53125 10.2891 6.82812 10.2891ZM13.5938 10.3906C15 10.3906 15.9453 9.65625 15.9453 8.54688C15.9453 7.74219 15.3438 7.10938 14.5234 7.02344L14.5234 7.00781C15.2031 6.89844 15.7266 6.27344 15.7266 5.55469C15.7266 4.60156 14.8594 3.91406 13.6484 3.91406C12.5469 3.91406 11.7109 4.44531 11.5234 5.25C11.5078 5.35156 11.5 5.41406 11.5 5.52344C11.5 5.78125 11.6875 5.96875 11.9688 5.96875C12.2109 5.96875 12.3594 5.85938 12.4375 5.61719C12.5859 5.09375 13.0312 4.79688 13.6328 4.79688C14.2969 4.79688 14.7188 5.13281 14.7188 5.67188C14.7188 6.22656 14.2422 6.63281 13.6016 6.63281L13.1719 6.63281C12.9297 6.63281 12.75 6.80469 12.75 7.05469C12.75 7.30469 12.9297 7.48438 13.1719 7.48438L13.6484 7.48438C14.4062 7.48438 14.9297 7.89062 14.9297 8.50781C14.9297 9.10938 14.3984 9.51562 13.6094 9.51562C12.9609 9.51562 12.5 9.21875 12.3203 8.6875C12.2188 8.45312 12.0781 8.34375 11.8438 8.34375C11.5547 8.34375 11.375 8.53906 11.375 8.8125C11.375 8.90625 11.3828 8.95312 11.3984 9.04688C11.5703 9.83594 12.4922 10.3906 13.5938 10.3906Z" fill="#ffffff" fill-opacity="0.85"/>
 </g>
</svg>
